<mxfile host="app.diagrams.net" modified="2024-04-16T13:00:53.254Z" agent="Mozilla/5.0 (X11; Ubuntu; Linux x86_64; rv:109.0) Gecko/20100101 Firefox/115.0" etag="dDUAHNpZgLQr-mL09Sqf" version="24.2.5" type="github" pages="2">
  <diagram name="Page-1" id="Qp61fSCBs-3hiERJ9KBp">
    <mxGraphModel dx="1655" dy="1868" grid="1" gridSize="10" guides="1" tooltips="1" connect="1" arrows="1" fold="1" page="1" pageScale="1" pageWidth="850" pageHeight="1100" math="0" shadow="0">
      <root>
        <mxCell id="0" />
        <mxCell id="1" parent="0" />
        <mxCell id="QbjLZJH73Ghxv6w0U4VS-2" value="" style="verticalLabelPosition=bottom;html=1;verticalAlign=top;strokeWidth=1;align=center;outlineConnect=0;dashed=0;outlineConnect=0;shape=mxgraph.aws3d.dataCenter;strokeColor=#5E5E5E;aspect=fixed;fillColor=#FF9999;" vertex="1" parent="1">
          <mxGeometry x="-434.8399999999999" y="-224.61499999999995" width="85" height="98.11" as="geometry" />
        </mxCell>
        <mxCell id="lmVo6tMnZ2sI9l-Z0m---45" value="" style="pointerEvents=1;verticalLabelPosition=bottom;shadow=0;dashed=0;align=center;html=1;verticalAlign=top;shape=mxgraph.electrical.miscellaneous.cable_termination" vertex="1" parent="1">
          <mxGeometry x="-673" y="-178.24" width="190" height="50" as="geometry" />
        </mxCell>
        <mxCell id="lmVo6tMnZ2sI9l-Z0m---46" value="" style="pointerEvents=1;verticalLabelPosition=bottom;shadow=0;dashed=0;align=center;html=1;verticalAlign=top;shape=mxgraph.electrical.miscellaneous.cable_termination" vertex="1" parent="1">
          <mxGeometry x="-678.16" y="-91.74000000000001" width="195.16" height="50" as="geometry" />
        </mxCell>
        <mxCell id="UKx8pQ5jXFXDLRxyCIWh-4" value="" style="verticalLabelPosition=bottom;html=1;verticalAlign=top;strokeWidth=1;align=center;outlineConnect=0;dashed=0;outlineConnect=0;shape=mxgraph.aws3d.dataCenter;strokeColor=#5E5E5E;aspect=fixed;fillColor=#FF9999;" vertex="1" parent="1">
          <mxGeometry x="-202.65999999999997" y="-590.0049999999999" width="85" height="98.11" as="geometry" />
        </mxCell>
        <mxCell id="SQrxm_OSD0dVW4YhnkR0-8" value="" style="ellipse;shape=cloud;whiteSpace=wrap;html=1;fontColor=#999999;labelBorderColor=#999999;strokeColor=#CCCCCC;strokeWidth=1;shadow=0;" vertex="1" parent="1">
          <mxGeometry x="-500.00000000000006" y="-686.14" width="75.16" height="71.76" as="geometry" />
        </mxCell>
        <mxCell id="4pqSHZiRRKbDVlVAF1v4-14" value="" style="rounded=1;whiteSpace=wrap;html=1;fillColor=default;shadow=1;" parent="1" vertex="1">
          <mxGeometry x="-810" y="-811.76" width="110" height="200" as="geometry" />
        </mxCell>
        <mxCell id="4pqSHZiRRKbDVlVAF1v4-1" value="&lt;font style=&quot;font-size: 24px;&quot;&gt;DANUBIUS Data Flow&lt;/font&gt;" style="text;strokeColor=none;align=center;fillColor=none;html=1;verticalAlign=middle;whiteSpace=wrap;rounded=0;" parent="1" vertex="1">
          <mxGeometry x="-522.47" y="-1070" width="292.16" height="30" as="geometry" />
        </mxCell>
        <mxCell id="4pqSHZiRRKbDVlVAF1v4-2" value="" style="image;aspect=fixed;perimeter=ellipsePerimeter;html=1;align=center;shadow=0;dashed=0;fontColor=#4277BB;labelBackgroundColor=default;fontSize=12;spacingTop=3;image=img/lib/ibm/users/sensor.svg;fillColor=#426EFF;strokeColor=#3333FF;" parent="1" vertex="1">
          <mxGeometry x="-780" y="-791.76" width="43" height="43" as="geometry" />
        </mxCell>
        <mxCell id="4pqSHZiRRKbDVlVAF1v4-5" value="" style="pointerEvents=1;verticalLabelPosition=bottom;shadow=0;dashed=0;align=center;html=1;verticalAlign=top;shape=mxgraph.electrical.miscellaneous.cable_termination" parent="1" vertex="1">
          <mxGeometry x="-680" y="-761.76" width="190" height="50" as="geometry" />
        </mxCell>
        <mxCell id="4pqSHZiRRKbDVlVAF1v4-6" value="sensors" style="text;html=1;align=center;verticalAlign=middle;resizable=0;points=[];autosize=1;strokeColor=none;fillColor=none;" parent="1" vertex="1">
          <mxGeometry x="-791.5" y="-816.76" width="70" height="30" as="geometry" />
        </mxCell>
        <mxCell id="4pqSHZiRRKbDVlVAF1v4-7" value="wireless network" style="text;html=1;align=center;verticalAlign=middle;resizable=0;points=[];autosize=1;strokeColor=none;fillColor=none;" parent="1" vertex="1">
          <mxGeometry x="-680" y="-761.76" width="110" height="30" as="geometry" />
        </mxCell>
        <mxCell id="4pqSHZiRRKbDVlVAF1v4-8" value="" style="verticalLabelPosition=bottom;html=1;verticalAlign=top;strokeWidth=1;align=center;outlineConnect=0;dashed=0;outlineConnect=0;shape=mxgraph.aws3d.dataCenter;strokeColor=#5E5E5E;aspect=fixed;fillColor=#009900;" parent="1" vertex="1">
          <mxGeometry x="-489.84" y="-773.52" width="55" height="63.5" as="geometry" />
        </mxCell>
        <mxCell id="4pqSHZiRRKbDVlVAF1v4-11" value="" style="image;aspect=fixed;perimeter=ellipsePerimeter;html=1;align=center;shadow=0;dashed=0;fontColor=#4277BB;labelBackgroundColor=default;fontSize=12;spacingTop=3;image=img/lib/ibm/users/sensor.svg;fillColor=#A680B8;" parent="1" vertex="1">
          <mxGeometry x="-780" y="-732.26" width="43" height="43" as="geometry" />
        </mxCell>
        <mxCell id="4pqSHZiRRKbDVlVAF1v4-12" value="" style="image;aspect=fixed;perimeter=ellipsePerimeter;html=1;align=center;shadow=0;dashed=0;fontColor=#4277BB;labelBackgroundColor=default;fontSize=12;spacingTop=3;image=img/lib/ibm/users/sensor.svg;fillColor=#A680B8;" parent="1" vertex="1">
          <mxGeometry x="-780" y="-671.76" width="43" height="43" as="geometry" />
        </mxCell>
        <mxCell id="4pqSHZiRRKbDVlVAF1v4-15" value="&lt;div&gt;&lt;font style=&quot;font-size: 18px;&quot;&gt;&lt;span style=&quot;background-color: initial;&quot;&gt;AAOT&lt;br&gt;&lt;/span&gt;&lt;/font&gt;&lt;/div&gt;" style="text;html=1;align=center;verticalAlign=middle;resizable=0;points=[];autosize=1;strokeColor=none;fillColor=none;fontStyle=0" parent="1" vertex="1">
          <mxGeometry x="-785" y="-856.76" width="70" height="40" as="geometry" />
        </mxCell>
        <mxCell id="4pqSHZiRRKbDVlVAF1v4-16" value="&lt;font style=&quot;font-size: 18px;&quot;&gt;&lt;font style=&quot;&quot;&gt;GROUND&lt;/font&gt;&lt;/font&gt;&lt;div&gt;&lt;font style=&quot;font-size: 18px;&quot;&gt;&lt;span style=&quot;background-color: initial;&quot;&gt;TERMINAL&lt;/span&gt;&lt;/font&gt;&lt;/div&gt;" style="text;html=1;align=center;verticalAlign=middle;resizable=0;points=[];autosize=1;strokeColor=none;fillColor=none;" parent="1" vertex="1">
          <mxGeometry x="-505.1599999999999" y="-884" width="110" height="60" as="geometry" />
        </mxCell>
        <mxCell id="4pqSHZiRRKbDVlVAF1v4-17" value="" style="endArrow=none;html=1;rounded=0;exitX=1;exitY=0.5;exitDx=0;exitDy=0;entryX=0;entryY=0.5;entryDx=0;entryDy=0;entryPerimeter=0;" parent="1" source="4pqSHZiRRKbDVlVAF1v4-11" target="4pqSHZiRRKbDVlVAF1v4-5" edge="1">
          <mxGeometry width="50" height="50" relative="1" as="geometry">
            <mxPoint x="-459.99999999999994" y="-601.76" as="sourcePoint" />
            <mxPoint x="-409.99999999999994" y="-651.76" as="targetPoint" />
          </mxGeometry>
        </mxCell>
        <mxCell id="4pqSHZiRRKbDVlVAF1v4-18" value="" style="endArrow=none;html=1;rounded=0;exitX=1;exitY=0.5;exitDx=0;exitDy=0;entryX=0;entryY=0.5;entryDx=0;entryDy=0;entryPerimeter=0;" parent="1" source="4pqSHZiRRKbDVlVAF1v4-2" target="4pqSHZiRRKbDVlVAF1v4-5" edge="1">
          <mxGeometry width="50" height="50" relative="1" as="geometry">
            <mxPoint x="-459.99999999999994" y="-601.76" as="sourcePoint" />
            <mxPoint x="-409.99999999999994" y="-651.76" as="targetPoint" />
          </mxGeometry>
        </mxCell>
        <mxCell id="4pqSHZiRRKbDVlVAF1v4-19" value="" style="endArrow=none;html=1;rounded=0;exitX=1;exitY=0.5;exitDx=0;exitDy=0;entryX=0;entryY=0.5;entryDx=0;entryDy=0;entryPerimeter=0;" parent="1" source="4pqSHZiRRKbDVlVAF1v4-12" target="iepFcFqsdsdjfFtBh1ew-26" edge="1">
          <mxGeometry width="50" height="50" relative="1" as="geometry">
            <mxPoint x="-459.99999999999994" y="-601.76" as="sourcePoint" />
            <mxPoint x="-620" y="-650" as="targetPoint" />
          </mxGeometry>
        </mxCell>
        <mxCell id="4pqSHZiRRKbDVlVAF1v4-21" value="CNR-ISMAR&lt;div&gt;&lt;b&gt;&lt;i&gt;Riva 7 Martiri&lt;br&gt;&lt;/i&gt;&lt;/b&gt;&lt;/div&gt;" style="text;html=1;align=center;verticalAlign=middle;resizable=0;points=[];autosize=1;strokeColor=none;fillColor=none;" parent="1" vertex="1">
          <mxGeometry x="-510.4899999999999" y="-813.52" width="100" height="40" as="geometry" />
        </mxCell>
        <mxCell id="UKx8pQ5jXFXDLRxyCIWh-6" value="" style="edgeStyle=orthogonalEdgeStyle;rounded=0;orthogonalLoop=1;jettySize=auto;html=1;dashed=1;strokeColor=default;align=center;verticalAlign=middle;fontFamily=Helvetica;fontSize=11;fontColor=default;labelBackgroundColor=default;endArrow=block;endFill=1;endSize=13;curved=1;" edge="1" parent="1" source="4pqSHZiRRKbDVlVAF1v4-31" target="UKx8pQ5jXFXDLRxyCIWh-5">
          <mxGeometry relative="1" as="geometry" />
        </mxCell>
        <mxCell id="4pqSHZiRRKbDVlVAF1v4-23" value="" style="verticalLabelPosition=bottom;html=1;verticalAlign=top;strokeWidth=1;align=center;outlineConnect=0;dashed=0;outlineConnect=0;shape=mxgraph.aws3d.dataCenter;strokeColor=#5E5E5E;aspect=fixed;fillColor=#FF9999;" parent="1" vertex="1">
          <mxGeometry x="-280.15999999999997" y="-760.8149999999999" width="85" height="98.11" as="geometry" />
        </mxCell>
        <mxCell id="4pqSHZiRRKbDVlVAF1v4-25" value="&lt;font style=&quot;font-size: 18px;&quot;&gt;&lt;font style=&quot;&quot;&gt;ISMAR&lt;/font&gt;&lt;/font&gt;&lt;div&gt;&lt;font style=&quot;font-size: 18px;&quot;&gt;&lt;span style=&quot;background-color: initial;&quot;&gt;DATA CENTER&lt;/span&gt;&lt;/font&gt;&lt;/div&gt;" style="text;html=1;align=center;verticalAlign=middle;resizable=0;points=[];autosize=1;strokeColor=none;fillColor=none;" parent="1" vertex="1">
          <mxGeometry x="-312.6599999999999" y="-850" width="150" height="60" as="geometry" />
        </mxCell>
        <mxCell id="4pqSHZiRRKbDVlVAF1v4-26" value="PU ISMAR VE1&lt;br&gt;PU ISMAR BASE" style="text;html=1;align=center;verticalAlign=middle;resizable=0;points=[];autosize=1;strokeColor=none;fillColor=none;" parent="1" vertex="1">
          <mxGeometry x="-296.8099999999999" y="-796" width="120" height="40" as="geometry" />
        </mxCell>
        <mxCell id="4pqSHZiRRKbDVlVAF1v4-28" value="&lt;font color=&quot;#009900&quot;&gt;data acquisition&lt;/font&gt;" style="text;html=1;align=center;verticalAlign=middle;resizable=0;points=[];autosize=1;strokeColor=none;fillColor=none;" parent="1" vertex="1">
          <mxGeometry x="-495.15999999999997" y="-937" width="110" height="30" as="geometry" />
        </mxCell>
        <mxCell id="4pqSHZiRRKbDVlVAF1v4-29" value="&lt;font color=&quot;#ea6b66&quot;&gt;data archive&lt;/font&gt;&lt;div&gt;&lt;span style=&quot;background-color: initial;&quot;&gt;&lt;br&gt;&lt;/span&gt;&lt;/div&gt;" style="text;html=1;align=center;verticalAlign=middle;resizable=0;points=[];autosize=1;strokeColor=none;fillColor=none;" parent="1" vertex="1">
          <mxGeometry x="-285.1599999999999" y="-917" width="90" height="40" as="geometry" />
        </mxCell>
        <mxCell id="iepFcFqsdsdjfFtBh1ew-10" value="" style="edgeStyle=orthogonalEdgeStyle;rounded=0;orthogonalLoop=1;jettySize=auto;html=1;dashed=1;strokeColor=default;align=center;verticalAlign=middle;fontFamily=Helvetica;fontSize=11;fontColor=default;labelBackgroundColor=default;endArrow=block;endFill=1;endSize=13;curved=1;" edge="1" parent="1" source="4pqSHZiRRKbDVlVAF1v4-31" target="q1Bn3hBCqwoTgKpazUaa-10">
          <mxGeometry relative="1" as="geometry" />
        </mxCell>
        <mxCell id="4pqSHZiRRKbDVlVAF1v4-57" value="&lt;font color=&quot;#007fff&quot;&gt;data&lt;/font&gt;&lt;div&gt;&lt;font color=&quot;#007fff&quot;&gt;pubblication&lt;/font&gt;&lt;/div&gt;" style="text;html=1;align=center;verticalAlign=middle;resizable=0;points=[];autosize=1;strokeColor=none;fillColor=none;" parent="1" vertex="1">
          <mxGeometry x="-9.99999999999996" y="-937" width="90" height="40" as="geometry" />
        </mxCell>
        <mxCell id="aEOgfYXyTeWv-xhQnnrg-3" value="&lt;font color=&quot;#ea6b66&quot;&gt;data processing&lt;/font&gt;" style="text;html=1;align=center;verticalAlign=middle;resizable=0;points=[];autosize=1;strokeColor=none;fillColor=none;" parent="1" vertex="1">
          <mxGeometry x="-295.15999999999997" y="-937" width="110" height="30" as="geometry" />
        </mxCell>
        <mxCell id="-9Asaq1sK7SZ5LfzFf3--5" value="raw data" style="text;html=1;align=center;verticalAlign=middle;whiteSpace=wrap;rounded=0;" parent="1" vertex="1">
          <mxGeometry x="-660" y="-737.76" width="60" height="30" as="geometry" />
        </mxCell>
        <mxCell id="q1Bn3hBCqwoTgKpazUaa-1" value="" style="edgeStyle=orthogonalEdgeStyle;rounded=0;orthogonalLoop=1;jettySize=auto;html=1;entryX=0;entryY=0.5;entryDx=0;entryDy=0;entryPerimeter=0;endArrow=none;endFill=0;" edge="1" parent="1" source="a_T5Woryt3mhJ2GAgc-b-1" target="a_T5Woryt3mhJ2GAgc-b-8">
          <mxGeometry relative="1" as="geometry" />
        </mxCell>
        <mxCell id="a_T5Woryt3mhJ2GAgc-b-6" value="&lt;font style=&quot;font-size: 18px;&quot;&gt;&lt;span style=&quot;font-size: 18px;&quot;&gt;S1GB&lt;/span&gt;&lt;/font&gt;" style="text;html=1;align=center;verticalAlign=middle;resizable=0;points=[];autosize=1;strokeColor=none;fillColor=none;fontFamily=Helvetica;fontSize=18;fontColor=default;fontStyle=0" vertex="1" parent="1">
          <mxGeometry x="-772.35" y="-550" width="70" height="40" as="geometry" />
        </mxCell>
        <mxCell id="a_T5Woryt3mhJ2GAgc-b-8" value="" style="pointerEvents=1;verticalLabelPosition=bottom;shadow=0;dashed=0;align=center;html=1;verticalAlign=top;shape=mxgraph.electrical.miscellaneous.cable_termination" vertex="1" parent="1">
          <mxGeometry x="-672.35" y="-428.99999999999994" width="190" height="50" as="geometry" />
        </mxCell>
        <mxCell id="a_T5Woryt3mhJ2GAgc-b-7" value="raw data" style="text;html=1;align=center;verticalAlign=middle;whiteSpace=wrap;rounded=0;" vertex="1" parent="1">
          <mxGeometry x="-637.5" y="-412.5" width="60" height="30" as="geometry" />
        </mxCell>
        <mxCell id="OyBNqoyi8HunE4hIohRq-1" value="" style="fontColor=#0066CC;verticalAlign=top;verticalLabelPosition=bottom;labelPosition=center;align=center;html=1;outlineConnect=0;fillColor=#CCCCCC;strokeColor=#6881B3;gradientColor=none;gradientDirection=north;strokeWidth=2;shape=mxgraph.networks.satellite;" vertex="1" parent="1">
          <mxGeometry x="-630.42" y="-445" width="29.15" height="30" as="geometry" />
        </mxCell>
        <mxCell id="q1Bn3hBCqwoTgKpazUaa-6" value="&lt;div&gt;PRIVATE CLOUD&lt;/div&gt;&lt;div&gt;&lt;b&gt;&lt;i&gt;Communication Technology&lt;/i&gt;&lt;/b&gt;&lt;br&gt;&lt;/div&gt;" style="text;html=1;align=center;verticalAlign=middle;resizable=0;points=[];autosize=1;strokeColor=none;fillColor=none;" vertex="1" parent="1">
          <mxGeometry x="-547.66" y="-470" width="180" height="40" as="geometry" />
        </mxCell>
        <mxCell id="iepFcFqsdsdjfFtBh1ew-7" value="" style="endArrow=block;dashed=1;html=1;rounded=0;endFill=1;endSize=13;edgeStyle=orthogonalEdgeStyle;curved=1;" edge="1" parent="1">
          <mxGeometry width="50" height="50" relative="1" as="geometry">
            <mxPoint x="250.00000000000014" y="-260" as="sourcePoint" />
            <mxPoint x="437.16" y="-280" as="targetPoint" />
            <Array as="points">
              <mxPoint x="325.15999999999997" y="-260" />
              <mxPoint x="325.15999999999997" y="-280" />
            </Array>
          </mxGeometry>
        </mxCell>
        <mxCell id="iepFcFqsdsdjfFtBh1ew-9" value="&lt;div&gt;DM&lt;/div&gt;" style="edgeLabel;html=1;align=center;verticalAlign=middle;resizable=0;points=[];" vertex="1" connectable="0" parent="iepFcFqsdsdjfFtBh1ew-7">
          <mxGeometry x="0.005" y="-4" relative="1" as="geometry">
            <mxPoint x="-19" y="17" as="offset" />
          </mxGeometry>
        </mxCell>
        <mxCell id="iepFcFqsdsdjfFtBh1ew-12" value="&lt;i&gt;&lt;b&gt;Arsenale&lt;/b&gt;&lt;/i&gt;" style="text;html=1;align=center;verticalAlign=middle;resizable=0;points=[];autosize=1;strokeColor=none;fillColor=none;" vertex="1" parent="1">
          <mxGeometry x="-272.6599999999999" y="-755.76" width="70" height="30" as="geometry" />
        </mxCell>
        <mxCell id="iepFcFqsdsdjfFtBh1ew-14" value="" style="endArrow=block;dashed=1;html=1;rounded=0;endFill=1;endSize=13;edgeStyle=orthogonalEdgeStyle;curved=1;" edge="1" parent="1" source="4pqSHZiRRKbDVlVAF1v4-8" target="4pqSHZiRRKbDVlVAF1v4-23">
          <mxGeometry width="50" height="50" relative="1" as="geometry">
            <mxPoint x="-184.99999999999997" y="-760" as="sourcePoint" />
            <mxPoint x="12.00000000000004" y="-770" as="targetPoint" />
          </mxGeometry>
        </mxCell>
        <mxCell id="iepFcFqsdsdjfFtBh1ew-15" value="Data Copy" style="edgeLabel;html=1;align=center;verticalAlign=middle;resizable=0;points=[];" vertex="1" connectable="0" parent="iepFcFqsdsdjfFtBh1ew-14">
          <mxGeometry x="0.005" y="-4" relative="1" as="geometry">
            <mxPoint as="offset" />
          </mxGeometry>
        </mxCell>
        <mxCell id="iepFcFqsdsdjfFtBh1ew-20" value="" style="endArrow=block;dashed=1;html=1;rounded=0;endFill=1;endSize=13;edgeStyle=orthogonalEdgeStyle;curved=1;" edge="1" parent="1">
          <mxGeometry width="50" height="50" relative="1" as="geometry">
            <mxPoint x="250.00000000000014" y="-300" as="sourcePoint" />
            <mxPoint x="437.16" y="-280" as="targetPoint" />
            <Array as="points">
              <mxPoint x="325.15999999999997" y="-300" />
              <mxPoint x="325.15999999999997" y="-280" />
              <mxPoint x="487.16" y="-280" />
            </Array>
          </mxGeometry>
        </mxCell>
        <mxCell id="iepFcFqsdsdjfFtBh1ew-21" value="NRT" style="edgeLabel;html=1;align=center;verticalAlign=middle;resizable=0;points=[];" vertex="1" connectable="0" parent="iepFcFqsdsdjfFtBh1ew-20">
          <mxGeometry x="0.005" y="-4" relative="1" as="geometry">
            <mxPoint x="-19" y="-26" as="offset" />
          </mxGeometry>
        </mxCell>
        <mxCell id="iepFcFqsdsdjfFtBh1ew-22" value="" style="group" vertex="1" connectable="0" parent="1">
          <mxGeometry x="-7.999999999999959" y="-635.76" width="100" height="135.05" as="geometry" />
        </mxCell>
        <mxCell id="iepFcFqsdsdjfFtBh1ew-11" value="" style="group" vertex="1" connectable="0" parent="iepFcFqsdsdjfFtBh1ew-22">
          <mxGeometry x="1.7763568394002505e-15" y="24" width="90" height="111.05000000000001" as="geometry" />
        </mxCell>
        <mxCell id="4pqSHZiRRKbDVlVAF1v4-44" value="" style="shape=cylinder;whiteSpace=wrap;html=1;boundedLbl=1;backgroundOutline=1;" parent="iepFcFqsdsdjfFtBh1ew-11" vertex="1">
          <mxGeometry width="90" height="107.05" as="geometry" />
        </mxCell>
        <mxCell id="4pqSHZiRRKbDVlVAF1v4-45" value="&lt;div&gt;&lt;font style=&quot;font-size: 18px;&quot;&gt;MARINE&lt;/font&gt;&lt;/div&gt;&lt;div&gt;&lt;font style=&quot;font-size: 18px;&quot;&gt;DATA&lt;/font&gt;&lt;/div&gt;&lt;div&gt;&lt;font style=&quot;font-size: 18px;&quot;&gt;STORE&lt;/font&gt;&lt;/div&gt;" style="text;html=1;align=center;verticalAlign=middle;resizable=0;points=[];autosize=1;strokeColor=none;fillColor=none;" parent="iepFcFqsdsdjfFtBh1ew-11" vertex="1">
          <mxGeometry y="31.05000000000001" width="90" height="80" as="geometry" />
        </mxCell>
        <mxCell id="iepFcFqsdsdjfFtBh1ew-24" value="" style="group" vertex="1" connectable="0" parent="1">
          <mxGeometry x="-7.999999999999959" y="-870.08" width="100" height="86.19000000000001" as="geometry" />
        </mxCell>
        <mxCell id="q1Bn3hBCqwoTgKpazUaa-10" value="" style="verticalLabelPosition=bottom;html=1;verticalAlign=top;strokeWidth=1;align=center;outlineConnect=0;dashed=0;outlineConnect=0;shape=mxgraph.aws3d.dataServer;strokeColor=#5E5E5E;aspect=fixed;fillColor=#0066CC;" vertex="1" parent="iepFcFqsdsdjfFtBh1ew-24">
          <mxGeometry width="100" height="86.19" as="geometry" />
        </mxCell>
        <mxCell id="q1Bn3hBCqwoTgKpazUaa-9" value="DANUBIUS RI&lt;br&gt;DATA PORTAL" style="text;html=1;align=center;verticalAlign=middle;resizable=0;points=[];autosize=1;strokeColor=none;fillColor=none;shadow=0;textShadow=0;labelBackgroundColor=none;labelBorderColor=none;fontColor=#FFFFFF;" vertex="1" parent="iepFcFqsdsdjfFtBh1ew-24">
          <mxGeometry y="15.950000000000003" width="100" height="40" as="geometry" />
        </mxCell>
        <mxCell id="SQrxm_OSD0dVW4YhnkR0-1" value="" style="endArrow=block;dashed=1;html=1;rounded=0;endFill=1;endSize=13;edgeStyle=orthogonalEdgeStyle;curved=1;entryX=0.002;entryY=0.518;entryDx=0;entryDy=0;entryPerimeter=0;exitX=0.875;exitY=0.5;exitDx=0;exitDy=0;exitPerimeter=0;" edge="1" parent="1" source="SQrxm_OSD0dVW4YhnkR0-8" target="4pqSHZiRRKbDVlVAF1v4-23">
          <mxGeometry width="50" height="50" relative="1" as="geometry">
            <mxPoint x="-435" y="-643.5348837209302" as="sourcePoint" />
            <mxPoint x="-270" y="-702" as="targetPoint" />
          </mxGeometry>
        </mxCell>
        <mxCell id="SQrxm_OSD0dVW4YhnkR0-2" value="Data Copy" style="edgeLabel;html=1;align=center;verticalAlign=middle;resizable=0;points=[];" vertex="1" connectable="0" parent="SQrxm_OSD0dVW4YhnkR0-1">
          <mxGeometry x="0.005" y="-4" relative="1" as="geometry">
            <mxPoint as="offset" />
          </mxGeometry>
        </mxCell>
        <mxCell id="iepFcFqsdsdjfFtBh1ew-25" value="&lt;span style=&quot;background-color: initial;&quot;&gt;&lt;font color=&quot;#ea6b66&quot;&gt;backup&lt;/font&gt;&lt;/span&gt;" style="text;whiteSpace=wrap;html=1;" vertex="1" parent="1">
          <mxGeometry x="-261.81" y="-590" width="50" height="40" as="geometry" />
        </mxCell>
        <mxCell id="iepFcFqsdsdjfFtBh1ew-26" value="" style="pointerEvents=1;verticalLabelPosition=bottom;shadow=0;dashed=0;align=center;html=1;verticalAlign=top;shape=mxgraph.electrical.miscellaneous.cable_termination" vertex="1" parent="1">
          <mxGeometry x="-685.16" y="-675.26" width="195.16" height="50" as="geometry" />
        </mxCell>
        <mxCell id="SQrxm_OSD0dVW4YhnkR0-7" value="" style="edgeStyle=orthogonalEdgeStyle;rounded=0;orthogonalLoop=1;jettySize=auto;html=1;dashed=1;strokeColor=default;align=center;verticalAlign=middle;fontFamily=Helvetica;fontSize=11;fontColor=default;labelBackgroundColor=default;endArrow=block;endFill=1;endSize=13;curved=1;" edge="1" parent="1" source="SQrxm_OSD0dVW4YhnkR0-3" target="SQrxm_OSD0dVW4YhnkR0-6">
          <mxGeometry relative="1" as="geometry" />
        </mxCell>
        <mxCell id="SQrxm_OSD0dVW4YhnkR0-3" value="" style="ellipse;shape=cloud;whiteSpace=wrap;html=1;fontColor=#999999;labelBorderColor=#999999;strokeColor=#CCCCCC;strokeWidth=1;shadow=0;" vertex="1" parent="1">
          <mxGeometry x="-493.15000000000003" y="-439.87999999999994" width="75.16" height="71.76" as="geometry" />
        </mxCell>
        <mxCell id="iepFcFqsdsdjfFtBh1ew-27" value="&lt;div&gt;PRIVATE CLOUD&lt;/div&gt;&lt;div&gt;&lt;b&gt;&lt;i&gt;weather.allmeteo.com&lt;/i&gt;&lt;/b&gt;&lt;br&gt;&lt;/div&gt;" style="text;html=1;align=center;verticalAlign=middle;resizable=0;points=[];autosize=1;strokeColor=none;fillColor=none;shadow=0;textShadow=1;labelBackgroundColor=none;" vertex="1" parent="1">
          <mxGeometry x="-537.3399999999999" y="-700" width="150" height="40" as="geometry" />
        </mxCell>
        <mxCell id="SQrxm_OSD0dVW4YhnkR0-4" value="raw data" style="text;html=1;align=center;verticalAlign=middle;whiteSpace=wrap;rounded=0;" vertex="1" parent="1">
          <mxGeometry x="-680" y="-653.26" width="60" height="30" as="geometry" />
        </mxCell>
        <mxCell id="SQrxm_OSD0dVW4YhnkR0-5" value="LoRa WAN" style="text;html=1;align=center;verticalAlign=middle;resizable=0;points=[];autosize=1;strokeColor=none;fillColor=none;" vertex="1" parent="1">
          <mxGeometry x="-685" y="-677.26" width="80" height="30" as="geometry" />
        </mxCell>
        <mxCell id="lmVo6tMnZ2sI9l-Z0m---28" value="" style="edgeStyle=orthogonalEdgeStyle;rounded=0;orthogonalLoop=1;jettySize=auto;html=1;dashed=1;strokeColor=default;align=center;verticalAlign=middle;fontFamily=Helvetica;fontSize=11;fontColor=default;labelBackgroundColor=default;endArrow=block;endFill=1;endSize=13;curved=1;" edge="1" parent="1" source="SQrxm_OSD0dVW4YhnkR0-6">
          <mxGeometry relative="1" as="geometry">
            <mxPoint x="-162.65999999999985" y="-404" as="targetPoint" />
          </mxGeometry>
        </mxCell>
        <mxCell id="SQrxm_OSD0dVW4YhnkR0-6" value="" style="verticalLabelPosition=bottom;html=1;verticalAlign=top;strokeWidth=1;align=center;outlineConnect=0;dashed=0;outlineConnect=0;shape=mxgraph.aws3d.dataCenter;strokeColor=#5E5E5E;aspect=fixed;fillColor=#FF9999;" vertex="1" parent="1">
          <mxGeometry x="-304.30999999999995" y="-453.05499999999995" width="85" height="98.11" as="geometry" />
        </mxCell>
        <mxCell id="UKx8pQ5jXFXDLRxyCIWh-1" value="&lt;i&gt;&lt;b&gt;Area BO&lt;br&gt;&lt;/b&gt;&lt;/i&gt;" style="text;html=1;align=center;verticalAlign=middle;resizable=0;points=[];autosize=1;strokeColor=none;fillColor=none;" vertex="1" parent="1">
          <mxGeometry x="-296.8099999999999" y="-445" width="70" height="30" as="geometry" />
        </mxCell>
        <mxCell id="UKx8pQ5jXFXDLRxyCIWh-5" value="&lt;i&gt;&lt;b&gt;Napoli&lt;/b&gt;&lt;/i&gt;" style="text;html=1;align=center;verticalAlign=middle;resizable=0;points=[];autosize=1;strokeColor=none;fillColor=none;" vertex="1" parent="1">
          <mxGeometry x="-189.30999999999995" y="-573.23" width="60" height="30" as="geometry" />
        </mxCell>
        <mxCell id="UKx8pQ5jXFXDLRxyCIWh-3" value="&lt;div&gt;PU ISMAR&lt;/div&gt;&lt;div&gt;ARCHIVE NA&lt;br&gt;&lt;/div&gt;" style="text;html=1;align=center;verticalAlign=middle;resizable=0;points=[];autosize=1;strokeColor=none;fillColor=none;" vertex="1" parent="1">
          <mxGeometry x="-210.1599999999999" y="-625.26" width="100" height="40" as="geometry" />
        </mxCell>
        <mxCell id="4pqSHZiRRKbDVlVAF1v4-31" value="" style="verticalLabelPosition=bottom;html=1;verticalAlign=top;strokeWidth=1;align=center;outlineConnect=0;dashed=0;outlineConnect=0;shape=mxgraph.aws3d.dataServer;strokeColor=#5E5E5E;aspect=fixed;fillColor=#99CCFF;noLabel=0;" parent="1" vertex="1">
          <mxGeometry x="-209.99999999999997" y="-730" width="100" height="86.18" as="geometry" />
        </mxCell>
        <mxCell id="4pqSHZiRRKbDVlVAF1v4-33" value="&lt;font style=&quot;font-size: 11px;&quot;&gt;ISMAR &lt;br&gt;ENDPOINT&lt;br&gt;&lt;/font&gt;" style="text;html=1;align=center;verticalAlign=middle;resizable=0;points=[];autosize=1;strokeColor=none;fillColor=none;" parent="1" vertex="1">
          <mxGeometry x="-199.99999999999997" y="-724" width="80" height="40" as="geometry" />
        </mxCell>
        <mxCell id="iepFcFqsdsdjfFtBh1ew-23" value="" style="edgeStyle=orthogonalEdgeStyle;rounded=0;orthogonalLoop=1;jettySize=auto;html=1;dashed=1;strokeColor=default;align=center;verticalAlign=middle;fontFamily=Helvetica;fontSize=11;fontColor=default;labelBackgroundColor=default;endArrow=block;endFill=1;endSize=13;curved=1;entryX=0.559;entryY=-0.008;entryDx=0;entryDy=0;entryPerimeter=0;" edge="1" parent="1" source="4pqSHZiRRKbDVlVAF1v4-31" target="4pqSHZiRRKbDVlVAF1v4-44">
          <mxGeometry relative="1" as="geometry" />
        </mxCell>
        <mxCell id="lmVo6tMnZ2sI9l-Z0m---29" value="PU ISMAR BO" style="text;html=1;align=center;verticalAlign=middle;resizable=0;points=[];autosize=1;strokeColor=none;fillColor=none;" vertex="1" parent="1">
          <mxGeometry x="-312.6599999999999" y="-481" width="100" height="30" as="geometry" />
        </mxCell>
        <mxCell id="lmVo6tMnZ2sI9l-Z0m---30" value="" style="group" vertex="1" connectable="0" parent="1">
          <mxGeometry x="-797.35" y="-506" width="110" height="202.00000000000006" as="geometry" />
        </mxCell>
        <mxCell id="a_T5Woryt3mhJ2GAgc-b-1" value="" style="rounded=1;whiteSpace=wrap;html=1;fillColor=default;shadow=1;" vertex="1" parent="lmVo6tMnZ2sI9l-Z0m---30">
          <mxGeometry y="2.000000000000057" width="110" height="200" as="geometry" />
        </mxCell>
        <mxCell id="a_T5Woryt3mhJ2GAgc-b-2" value="" style="image;aspect=fixed;perimeter=ellipsePerimeter;html=1;align=center;shadow=0;dashed=0;fontColor=#4277BB;labelBackgroundColor=default;fontSize=12;spacingTop=3;image=img/lib/ibm/users/sensor.svg;fillColor=#426EFF;strokeColor=#3333FF;" vertex="1" parent="lmVo6tMnZ2sI9l-Z0m---30">
          <mxGeometry x="30" y="25" width="43" height="43" as="geometry" />
        </mxCell>
        <mxCell id="a_T5Woryt3mhJ2GAgc-b-3" value="sensors" style="text;html=1;align=center;verticalAlign=middle;resizable=0;points=[];autosize=1;strokeColor=none;fillColor=none;" vertex="1" parent="lmVo6tMnZ2sI9l-Z0m---30">
          <mxGeometry x="18.5" width="70" height="30" as="geometry" />
        </mxCell>
        <mxCell id="a_T5Woryt3mhJ2GAgc-b-4" value="" style="image;aspect=fixed;perimeter=ellipsePerimeter;html=1;align=center;shadow=0;dashed=0;fontColor=#4277BB;labelBackgroundColor=default;fontSize=12;spacingTop=3;image=img/lib/ibm/users/sensor.svg;fillColor=#A680B8;" vertex="1" parent="lmVo6tMnZ2sI9l-Z0m---30">
          <mxGeometry x="30" y="84.5" width="43" height="43" as="geometry" />
        </mxCell>
        <mxCell id="a_T5Woryt3mhJ2GAgc-b-5" value="" style="image;aspect=fixed;perimeter=ellipsePerimeter;html=1;align=center;shadow=0;dashed=0;fontColor=#4277BB;labelBackgroundColor=default;fontSize=12;spacingTop=3;image=img/lib/ibm/users/sensor.svg;fillColor=#A680B8;" vertex="1" parent="lmVo6tMnZ2sI9l-Z0m---30">
          <mxGeometry x="30" y="145" width="43" height="43" as="geometry" />
        </mxCell>
        <mxCell id="lmVo6tMnZ2sI9l-Z0m---31" value="" style="group" vertex="1" connectable="0" parent="1">
          <mxGeometry x="-800" y="-230" width="110" height="202.00000000000006" as="geometry" />
        </mxCell>
        <mxCell id="lmVo6tMnZ2sI9l-Z0m---32" value="" style="rounded=1;whiteSpace=wrap;html=1;fillColor=default;shadow=1;" vertex="1" parent="lmVo6tMnZ2sI9l-Z0m---31">
          <mxGeometry y="2.000000000000057" width="110" height="200" as="geometry" />
        </mxCell>
        <mxCell id="lmVo6tMnZ2sI9l-Z0m---33" value="" style="image;aspect=fixed;perimeter=ellipsePerimeter;html=1;align=center;shadow=0;dashed=0;fontColor=#4277BB;labelBackgroundColor=default;fontSize=12;spacingTop=3;image=img/lib/ibm/users/sensor.svg;fillColor=#426EFF;strokeColor=#3333FF;" vertex="1" parent="lmVo6tMnZ2sI9l-Z0m---31">
          <mxGeometry x="30" y="25" width="43" height="43" as="geometry" />
        </mxCell>
        <mxCell id="lmVo6tMnZ2sI9l-Z0m---34" value="sensors" style="text;html=1;align=center;verticalAlign=middle;resizable=0;points=[];autosize=1;strokeColor=none;fillColor=none;" vertex="1" parent="lmVo6tMnZ2sI9l-Z0m---31">
          <mxGeometry x="18.5" width="70" height="30" as="geometry" />
        </mxCell>
        <mxCell id="lmVo6tMnZ2sI9l-Z0m---35" value="" style="image;aspect=fixed;perimeter=ellipsePerimeter;html=1;align=center;shadow=0;dashed=0;fontColor=#4277BB;labelBackgroundColor=default;fontSize=12;spacingTop=3;image=img/lib/ibm/users/sensor.svg;fillColor=#A680B8;" vertex="1" parent="lmVo6tMnZ2sI9l-Z0m---31">
          <mxGeometry x="30" y="84.5" width="43" height="43" as="geometry" />
        </mxCell>
        <mxCell id="lmVo6tMnZ2sI9l-Z0m---36" value="" style="image;aspect=fixed;perimeter=ellipsePerimeter;html=1;align=center;shadow=0;dashed=0;fontColor=#4277BB;labelBackgroundColor=default;fontSize=12;spacingTop=3;image=img/lib/ibm/users/sensor.svg;fillColor=#A680B8;" vertex="1" parent="lmVo6tMnZ2sI9l-Z0m---31">
          <mxGeometry x="30" y="145" width="43" height="43" as="geometry" />
        </mxCell>
        <mxCell id="lmVo6tMnZ2sI9l-Z0m---37" value="PALOMA&lt;br&gt;MAREOGRAFICA TS" style="text;html=1;align=center;verticalAlign=middle;resizable=0;points=[];autosize=1;strokeColor=none;fillColor=none;fontFamily=Helvetica;fontSize=18;fontColor=default;fontStyle=0" vertex="1" parent="1">
          <mxGeometry x="-842.35" y="-282.5" width="200" height="60" as="geometry" />
        </mxCell>
        <mxCell id="lmVo6tMnZ2sI9l-Z0m---39" value="" style="endArrow=none;html=1;rounded=0;exitX=1;exitY=0.5;exitDx=0;exitDy=0;entryX=0;entryY=0.5;entryDx=0;entryDy=0;entryPerimeter=0;" edge="1" target="lmVo6tMnZ2sI9l-Z0m---45" parent="1">
          <mxGeometry width="50" height="50" relative="1" as="geometry">
            <mxPoint x="-730" y="-186.48000000000002" as="sourcePoint" />
            <mxPoint x="-402.99999999999994" y="-68.24000000000001" as="targetPoint" />
          </mxGeometry>
        </mxCell>
        <mxCell id="lmVo6tMnZ2sI9l-Z0m---40" value="" style="endArrow=none;html=1;rounded=0;exitX=1;exitY=0.5;exitDx=0;exitDy=0;entryX=0;entryY=0.5;entryDx=0;entryDy=0;entryPerimeter=0;" edge="1" target="lmVo6tMnZ2sI9l-Z0m---45" parent="1">
          <mxGeometry width="50" height="50" relative="1" as="geometry">
            <mxPoint x="-730" y="-127.48000000000002" as="sourcePoint" />
            <mxPoint x="-402.99999999999994" y="-68.24000000000001" as="targetPoint" />
          </mxGeometry>
        </mxCell>
        <mxCell id="lmVo6tMnZ2sI9l-Z0m---42" value="raw data" style="text;html=1;align=center;verticalAlign=middle;whiteSpace=wrap;rounded=0;" vertex="1" parent="1">
          <mxGeometry x="-673" y="-69.74000000000001" width="60" height="30" as="geometry" />
        </mxCell>
        <mxCell id="lmVo6tMnZ2sI9l-Z0m---44" value="raw data" style="text;html=1;align=center;verticalAlign=middle;whiteSpace=wrap;rounded=0;" vertex="1" parent="1">
          <mxGeometry x="-653" y="-154.24" width="60" height="30" as="geometry" />
        </mxCell>
        <mxCell id="lmVo6tMnZ2sI9l-Z0m---47" value="" style="endArrow=none;html=1;rounded=0;exitX=1;exitY=0.5;exitDx=0;exitDy=0;entryX=0;entryY=0.5;entryDx=0;entryDy=0;entryPerimeter=0;" edge="1" target="lmVo6tMnZ2sI9l-Z0m---46" parent="1">
          <mxGeometry width="50" height="50" relative="1" as="geometry">
            <mxPoint x="-730" y="-66.48000000000002" as="sourcePoint" />
            <mxPoint x="-613" y="-66.48000000000002" as="targetPoint" />
          </mxGeometry>
        </mxCell>
        <mxCell id="lmVo6tMnZ2sI9l-Z0m---48" value="" style="verticalLabelPosition=bottom;html=1;verticalAlign=top;strokeWidth=1;align=center;outlineConnect=0;dashed=0;outlineConnect=0;shape=mxgraph.aws3d.dataCenter;strokeColor=#5E5E5E;aspect=fixed;fillColor=#009900;" vertex="1" parent="1">
          <mxGeometry x="-482.84" y="-190" width="55" height="63.5" as="geometry" />
        </mxCell>
        <mxCell id="lmVo6tMnZ2sI9l-Z0m---49" value="PU ISMAR TS" style="text;html=1;align=center;verticalAlign=middle;resizable=0;points=[];autosize=1;strokeColor=none;fillColor=none;" vertex="1" parent="1">
          <mxGeometry x="-449.8399999999999" y="-270" width="100" height="30" as="geometry" />
        </mxCell>
        <mxCell id="li3H9bwgGOqNmr4-qQ4G-3" value="" style="verticalLabelPosition=bottom;html=1;verticalAlign=top;strokeWidth=1;align=center;outlineConnect=0;dashed=0;outlineConnect=0;shape=mxgraph.aws3d.dataCenter;strokeColor=#5E5E5E;aspect=fixed;fillColor=#009900;" vertex="1" parent="1">
          <mxGeometry x="-327.65999999999997" y="-382.5" width="55" height="63.5" as="geometry" />
        </mxCell>
        <mxCell id="li3H9bwgGOqNmr4-qQ4G-4" value="" style="group" vertex="1" connectable="0" parent="1">
          <mxGeometry x="-420" y="-360" width="90" height="39" as="geometry" />
        </mxCell>
        <mxCell id="li3H9bwgGOqNmr4-qQ4G-1" value="" style="shape=image;html=1;verticalAlign=top;verticalLabelPosition=bottom;labelBackgroundColor=#ffffff;imageAspect=0;aspect=fixed;image=https://cdn0.iconfinder.com/data/icons/phosphor-thin-vol-3/256/hand-pointing-thin-128.png" vertex="1" parent="li3H9bwgGOqNmr4-qQ4G-4">
          <mxGeometry x="16.350000000000023" width="18" height="18" as="geometry" />
        </mxCell>
        <mxCell id="li3H9bwgGOqNmr4-qQ4G-2" value="" style="pointerEvents=1;verticalLabelPosition=bottom;shadow=0;dashed=0;align=center;html=1;verticalAlign=top;shape=mxgraph.electrical.miscellaneous.cable_termination" vertex="1" parent="li3H9bwgGOqNmr4-qQ4G-4">
          <mxGeometry y="9" width="90" height="30" as="geometry" />
        </mxCell>
        <mxCell id="li3H9bwgGOqNmr4-qQ4G-12" value="" style="rounded=1;whiteSpace=wrap;html=1;fillColor=default;shadow=1;" vertex="1" parent="1">
          <mxGeometry x="-630" y="-358" width="160" height="108" as="geometry" />
        </mxCell>
        <mxCell id="li3H9bwgGOqNmr4-qQ4G-13" value="" style="image;aspect=fixed;perimeter=ellipsePerimeter;html=1;align=center;shadow=0;dashed=0;fontColor=#4277BB;labelBackgroundColor=default;fontSize=12;spacingTop=3;image=img/lib/ibm/users/sensor.svg;fillColor=#426EFF;strokeColor=#3333FF;" vertex="1" parent="1">
          <mxGeometry x="-606.5" y="-325.5" width="43" height="43" as="geometry" />
        </mxCell>
        <mxCell id="li3H9bwgGOqNmr4-qQ4G-14" value="equipment" style="text;html=1;align=center;verticalAlign=middle;resizable=0;points=[];autosize=1;strokeColor=none;fillColor=none;" vertex="1" parent="1">
          <mxGeometry x="-590.49" y="-360" width="80" height="30" as="geometry" />
        </mxCell>
        <mxCell id="li3H9bwgGOqNmr4-qQ4G-17" value="&lt;i&gt;&lt;b&gt;Area TS&lt;br&gt;&lt;/b&gt;&lt;/i&gt;" style="text;html=1;align=center;verticalAlign=middle;resizable=0;points=[];autosize=1;strokeColor=none;fillColor=none;" vertex="1" parent="1">
          <mxGeometry x="-427.8399999999999" y="-220" width="70" height="30" as="geometry" />
        </mxCell>
        <mxCell id="QbjLZJH73Ghxv6w0U4VS-1" value="" style="shape=mxgraph.signs.tech.cell_phone;html=1;pointerEvents=1;fillColor=#000000;strokeColor=none;verticalLabelPosition=bottom;verticalAlign=top;align=center;" vertex="1" parent="1">
          <mxGeometry x="-621.88" y="-193" width="12.07" height="28" as="geometry" />
        </mxCell>
      </root>
    </mxGraphModel>
  </diagram>
  <diagram id="vvxWp0gCG2OmDACOYuZ-" name="Pagina-2">
    <mxGraphModel dx="467" dy="446" grid="1" gridSize="10" guides="1" tooltips="1" connect="1" arrows="1" fold="1" page="1" pageScale="1" pageWidth="827" pageHeight="1169" math="0" shadow="0">
      <root>
        <mxCell id="0" />
        <mxCell id="1" parent="0" />
        <mxCell id="qUJujpzUpFT0ZEW0nbQm-2" value="&lt;b&gt;&lt;font style=&quot;font-size: 18px;&quot;&gt;Legend&lt;/font&gt;&lt;/b&gt;" style="text;html=1;align=center;verticalAlign=middle;whiteSpace=wrap;rounded=0;" parent="1" vertex="1">
          <mxGeometry x="32.5" y="10" width="60" height="30" as="geometry" />
        </mxCell>
        <mxCell id="blh9U4LSzaQfzrH51qhb-1" value="" style="image;aspect=fixed;perimeter=ellipsePerimeter;html=1;align=center;shadow=0;dashed=0;fontColor=#4277BB;labelBackgroundColor=default;fontSize=12;spacingTop=3;image=img/lib/ibm/users/sensor.svg;fillColor=#426EFF;strokeColor=#3333FF;" parent="1" vertex="1">
          <mxGeometry x="50.85" y="222" width="43" height="43" as="geometry" />
        </mxCell>
        <mxCell id="blh9U4LSzaQfzrH51qhb-2" value="Sensor" style="text;html=1;align=center;verticalAlign=middle;resizable=0;points=[];autosize=1;strokeColor=none;fillColor=none;" parent="1" vertex="1">
          <mxGeometry x="145" y="222" width="60" height="30" as="geometry" />
        </mxCell>
        <mxCell id="R7IfXeYZBCrH7mYcfu_O-1" value="" style="verticalLabelPosition=bottom;html=1;verticalAlign=top;strokeWidth=1;align=center;outlineConnect=0;dashed=0;outlineConnect=0;shape=mxgraph.aws3d.dataCenter;strokeColor=#5E5E5E;aspect=fixed;fillColor=#009900;" parent="1" vertex="1">
          <mxGeometry x="32.50000000000001" y="282" width="79.69" height="92" as="geometry" />
        </mxCell>
        <mxCell id="MzpVetzbMVdfSrjgV1Oj-1" value="" style="verticalLabelPosition=bottom;html=1;verticalAlign=top;strokeWidth=1;align=center;outlineConnect=0;dashed=0;outlineConnect=0;shape=mxgraph.aws3d.dataCenter;strokeColor=#5E5E5E;aspect=fixed;fillColor=#FF9999;" parent="1" vertex="1">
          <mxGeometry x="32.49999999999998" y="382" width="79.69" height="92" as="geometry" />
        </mxCell>
        <mxCell id="6HFweNIuQG9xlJXQWEaB-1" value="" style="verticalLabelPosition=bottom;html=1;verticalAlign=top;strokeWidth=1;align=center;outlineConnect=0;dashed=0;outlineConnect=0;shape=mxgraph.aws3d.dataServer;strokeColor=#5E5E5E;aspect=fixed;fillColor=#99CCFF;" parent="1" vertex="1">
          <mxGeometry x="32.500000000000036" y="482" width="80" height="68.95" as="geometry" />
        </mxCell>
        <mxCell id="6HFweNIuQG9xlJXQWEaB-2" value="" style="fontColor=#0066CC;verticalAlign=top;verticalLabelPosition=bottom;labelPosition=center;align=center;html=1;outlineConnect=0;fillColor=#CCCCCC;strokeColor=#6881B3;gradientColor=none;gradientDirection=north;strokeWidth=2;shape=mxgraph.networks.satellite;" parent="1" vertex="1">
          <mxGeometry x="52.35" y="670" width="29.15" height="30" as="geometry" />
        </mxCell>
        <mxCell id="bTpCMeQjLEl4jl8mEI4X-1" value="" style="shape=cylinder;whiteSpace=wrap;html=1;boundedLbl=1;backgroundOutline=1;" parent="1" vertex="1">
          <mxGeometry x="50.85" y="1000" width="49.15" height="60" as="geometry" />
        </mxCell>
        <mxCell id="jh-zK2yal1VLjSKurxgF-2" value="" style="rounded=1;whiteSpace=wrap;html=1;fillColor=default;shadow=1;" parent="1" vertex="1">
          <mxGeometry x="22.350000000000023" y="60" width="100" height="100" as="geometry" />
        </mxCell>
        <mxCell id="jh-zK2yal1VLjSKurxgF-4" value="Facility/data source (please insert the name)" style="text;html=1;align=center;verticalAlign=middle;resizable=0;points=[];autosize=1;strokeColor=none;fillColor=none;" parent="1" vertex="1">
          <mxGeometry x="140" y="95" width="260" height="30" as="geometry" />
        </mxCell>
        <mxCell id="jh-zK2yal1VLjSKurxgF-5" value="Ground segment&amp;nbsp; (if there is&amp;nbsp; specific name, please insert it)" style="text;html=1;align=center;verticalAlign=middle;resizable=0;points=[];autosize=1;strokeColor=none;fillColor=none;" parent="1" vertex="1">
          <mxGeometry x="145" y="300" width="340" height="30" as="geometry" />
        </mxCell>
        <mxCell id="jh-zK2yal1VLjSKurxgF-6" value="Data center/local archive (please insert thename)" style="text;html=1;align=center;verticalAlign=middle;resizable=0;points=[];autosize=1;strokeColor=none;fillColor=none;" parent="1" vertex="1">
          <mxGeometry x="155" y="420" width="280" height="30" as="geometry" />
        </mxCell>
        <mxCell id="jh-zK2yal1VLjSKurxgF-7" value="ERDDAP/THREADS (machine to machine). Please insert minimum info" style="text;html=1;align=center;verticalAlign=middle;resizable=0;points=[];autosize=1;strokeColor=none;fillColor=none;" parent="1" vertex="1">
          <mxGeometry x="160" y="501.47" width="400" height="30" as="geometry" />
        </mxCell>
        <mxCell id="jh-zK2yal1VLjSKurxgF-8" value="Transmission through satellite" style="text;html=1;align=center;verticalAlign=middle;resizable=0;points=[];autosize=1;strokeColor=none;fillColor=none;" parent="1" vertex="1">
          <mxGeometry x="165" y="690" width="180" height="30" as="geometry" />
        </mxCell>
        <mxCell id="jh-zK2yal1VLjSKurxgF-9" value="Marine Data Store" style="text;html=1;align=center;verticalAlign=middle;resizable=0;points=[];autosize=1;strokeColor=none;fillColor=none;" parent="1" vertex="1">
          <mxGeometry x="165" y="1015" width="120" height="30" as="geometry" />
        </mxCell>
        <mxCell id="IqCwcvdLtF8ToH1M-SmM-1" value="" style="verticalLabelPosition=bottom;html=1;verticalAlign=top;strokeWidth=1;align=center;outlineConnect=0;dashed=0;outlineConnect=0;shape=mxgraph.aws3d.dataServer;strokeColor=#5E5E5E;aspect=fixed;fillColor=#0066CC;" parent="1" vertex="1">
          <mxGeometry x="30.850000000000023" y="570" width="80" height="68.95" as="geometry" />
        </mxCell>
        <mxCell id="IqCwcvdLtF8ToH1M-SmM-2" value="Data portal/server (not machine to machine). Please insert minimum info" style="text;html=1;align=center;verticalAlign=middle;resizable=0;points=[];autosize=1;strokeColor=none;fillColor=none;" parent="1" vertex="1">
          <mxGeometry x="155" y="585" width="410" height="30" as="geometry" />
        </mxCell>
        <mxCell id="IqCwcvdLtF8ToH1M-SmM-3" value="" style="shape=mxgraph.signs.tech.cell_phone;html=1;pointerEvents=1;fillColor=#000000;strokeColor=none;verticalLabelPosition=bottom;verticalAlign=top;align=center;" parent="1" vertex="1">
          <mxGeometry x="57.93" y="750" width="12.07" height="28" as="geometry" />
        </mxCell>
        <mxCell id="IqCwcvdLtF8ToH1M-SmM-4" value="Transmission through telephone/GSM" style="text;html=1;align=center;verticalAlign=middle;resizable=0;points=[];autosize=1;strokeColor=none;fillColor=none;" parent="1" vertex="1">
          <mxGeometry x="159" y="780" width="230" height="30" as="geometry" />
        </mxCell>
        <mxCell id="7IolP2UbokMcHoUO21is-2" value="Transmission through cable&amp;nbsp;" style="text;html=1;align=center;verticalAlign=middle;resizable=0;points=[];autosize=1;strokeColor=none;fillColor=none;" parent="1" vertex="1">
          <mxGeometry x="165" y="840" width="170" height="30" as="geometry" />
        </mxCell>
        <mxCell id="RP-ixJN5NqliHIxumPwU-1" value="&lt;div style=&quot;text-align: left;&quot;&gt;&lt;span style=&quot;background-color: initial;&quot;&gt;NOTA.&amp;nbsp;&lt;/span&gt;&lt;/div&gt;&lt;div&gt;&lt;span style=&quot;background-color: initial;&quot;&gt;In caso siano necessari altri simboli per rappresentare il flusso dati, scegliere quelli più opportuni dal menù a sinistra&amp;nbsp; e inserirli nella legenda del data flow specifico&lt;/span&gt;&lt;br&gt;&lt;/div&gt;" style="text;html=1;align=center;verticalAlign=middle;resizable=0;points=[];autosize=1;strokeColor=none;fillColor=none;" parent="1" vertex="1">
          <mxGeometry x="50.85000000000002" y="1095" width="890" height="40" as="geometry" />
        </mxCell>
        <mxCell id="IiBNeeS6wPKNriuaZG7T-26" value="" style="shape=image;html=1;verticalAlign=top;verticalLabelPosition=bottom;labelBackgroundColor=#ffffff;imageAspect=0;aspect=fixed;image=https://cdn0.iconfinder.com/data/icons/phosphor-thin-vol-3/256/hand-pointing-thin-128.png" parent="1" vertex="1">
          <mxGeometry x="56.35" y="921" width="18" height="18" as="geometry" />
        </mxCell>
        <mxCell id="IiBNeeS6wPKNriuaZG7T-27" value="Manually downloaded data" style="text;html=1;align=center;verticalAlign=middle;resizable=0;points=[];autosize=1;strokeColor=none;fillColor=none;" parent="1" vertex="1">
          <mxGeometry x="160" y="938" width="170" height="30" as="geometry" />
        </mxCell>
        <mxCell id="snaQXOSLHZd2y2woPmhO-2" value="" style="pointerEvents=1;verticalLabelPosition=bottom;shadow=0;dashed=0;align=center;html=1;verticalAlign=top;shape=mxgraph.electrical.miscellaneous.cable_termination" parent="1" vertex="1">
          <mxGeometry x="40" y="690" width="90" height="30" as="geometry" />
        </mxCell>
        <mxCell id="snaQXOSLHZd2y2woPmhO-3" value="" style="pointerEvents=1;verticalLabelPosition=bottom;shadow=0;dashed=0;align=center;html=1;verticalAlign=top;shape=mxgraph.electrical.miscellaneous.cable_termination" parent="1" vertex="1">
          <mxGeometry x="40" y="770" width="90" height="30" as="geometry" />
        </mxCell>
        <mxCell id="snaQXOSLHZd2y2woPmhO-4" value="" style="pointerEvents=1;verticalLabelPosition=bottom;shadow=0;dashed=0;align=center;html=1;verticalAlign=top;shape=mxgraph.electrical.miscellaneous.cable_termination" parent="1" vertex="1">
          <mxGeometry x="40" y="840" width="90" height="30" as="geometry" />
        </mxCell>
        <mxCell id="snaQXOSLHZd2y2woPmhO-5" value="" style="pointerEvents=1;verticalLabelPosition=bottom;shadow=0;dashed=0;align=center;html=1;verticalAlign=top;shape=mxgraph.electrical.miscellaneous.cable_termination" parent="1" vertex="1">
          <mxGeometry x="40" y="930" width="90" height="30" as="geometry" />
        </mxCell>
      </root>
    </mxGraphModel>
  </diagram>
</mxfile>
